<svg width="800" height="800" viewBox="0 0 64 64" xmlns="http://www.w3.org/2000/svg" aria-hidden="true" class="iconify iconify--emojione-monotone"><path d="m20.52 59.717 7.027-7.2a20.9 20.9 0 0 1-6.904-2.87zM43.48 4.284l-7.025 7.199a20.9 20.9 0 0 1 6.904 2.871zm-31.996 32.17-7.201 7.025 10.07-.122a20.9 20.9 0 0 1-2.869-6.903m41.032-8.907 7.201-7.027-10.07.123a20.9 20.9 0 0 1 2.869 6.904m-38.162-6.905-10.07-.123 7.201 7.027a20.8 20.8 0 0 1 2.869-6.904m35.292 22.716 10.07.122-7.201-7.026a20.8 20.8 0 0 1-2.869 6.904M27.547 11.483l-7.027-7.2.123 10.07a20.9 20.9 0 0 1 6.904-2.87m8.906 41.034 7.027 7.199-.123-10.069a20.9 20.9 0 0 1-6.904 2.87m-21.701-8.555-3.967 9.251 9.252-3.965a21.1 21.1 0 0 1-5.285-5.286m34.496-23.923 3.965-9.252-9.25 3.965a21.1 21.1 0 0 1 5.285 5.287M11 32c0-1.278.133-2.524.352-3.741L2 31.999l9.352 3.74A21 21 0 0 1 11 32m51 0-9.352-3.741C52.867 29.476 53 30.722 53 32s-.133 2.525-.352 3.741zM20.039 14.751l-9.252-3.965 3.965 9.252a21.2 21.2 0 0 1 5.287-5.287m23.922 34.497 9.252 3.965-3.965-9.251a21.1 21.1 0 0 1-5.287 5.286M35.74 11.352 32 2l-3.74 9.352C29.475 11.133 30.721 11 32 11s2.525.133 3.74.352m-7.48 41.296L32 62l3.74-9.352c-1.215.219-2.461.352-3.74.352s-2.525-.133-3.74-.352"/><circle cx="32" cy="32" r="19"/></svg>